<svg width="359" height="49" viewBox="0 0 359 49" fill="none" xmlns="http://www.w3.org/2000/svg">
<path d="M352.151 36L352.453 33.5364C353.928 33.5364 354.967 33.3856 355.57 33.0839C356.173 32.7488 356.475 32.0281 356.475 30.922C356.475 30.1846 356.291 29.2294 355.922 28.0562C355.587 26.8831 355.201 25.7267 354.766 24.5871L357.179 23.6821C357.548 24.6542 357.9 25.8105 358.235 27.1512C358.57 28.4584 358.738 29.5645 358.738 30.4695C358.738 31.4751 358.603 32.3298 358.335 33.0337C358.067 33.7375 357.665 34.3073 357.129 34.7431C356.592 35.1788 355.905 35.4972 355.067 35.6983C354.263 35.8994 353.291 36 352.151 36ZM355.369 41.631C354.967 41.631 354.615 41.4802 354.313 41.1785C354.012 40.8769 353.861 40.5249 353.861 40.1227C353.861 39.7205 354.012 39.3686 354.313 39.0669C354.615 38.7652 354.967 38.6144 355.369 38.6144C355.771 38.6144 356.123 38.7652 356.425 39.0669C356.726 39.3686 356.877 39.7205 356.877 40.1227C356.877 40.5249 356.726 40.8769 356.425 41.1785C356.123 41.4802 355.771 41.631 355.369 41.631ZM263.664 47.7145C263.228 46.1727 262.859 44.6476 262.558 43.1393C262.256 41.6645 262.021 40.3406 261.854 39.1675C261.72 38.0278 261.653 37.1731 261.653 36.6033C261.653 35.1285 261.887 33.7878 262.357 32.5812C262.859 31.341 263.479 30.2517 264.217 29.3132C264.988 28.3411 265.809 27.5367 266.68 26.8999C267.585 26.263 268.457 25.777 269.295 25.4418C270.133 25.1066 270.837 24.9391 271.406 24.9391C271.909 24.9391 272.345 25.0564 272.714 25.291C273.116 25.4921 273.484 25.9111 273.82 26.5479C274.188 27.1848 274.591 28.14 275.026 29.4137C275.395 30.5533 275.747 31.4248 276.082 32.0281C276.451 32.5979 276.82 33.0001 277.188 33.2348C277.59 33.4359 278.06 33.5364 278.596 33.5364C279.032 33.5364 279.333 33.6537 279.501 33.8884C279.702 34.123 279.803 34.3911 279.803 34.6928C279.803 35.028 279.652 35.3296 279.35 35.5978C279.082 35.8659 278.73 36 278.294 36C277.523 36 276.853 35.8659 276.283 35.5978C275.747 35.2961 275.278 34.9107 274.876 34.4414L275.579 33.8381C275.211 34.7096 274.708 35.3632 274.071 35.7989C273.434 36.2011 272.73 36.4022 271.959 36.4022C271.189 36.4022 270.384 36.2179 269.546 35.8492C268.708 35.4805 267.904 34.9274 267.133 34.19C266.395 33.4526 265.759 32.5812 265.222 31.5756L265.524 31.6259C264.954 32.3968 264.569 33.2515 264.368 34.19C264.2 35.095 264.116 35.8994 264.116 36.6033C264.116 37.3742 264.217 38.3798 264.418 39.6199C264.619 40.8936 264.87 42.2008 265.172 43.5416C265.474 44.8823 265.775 46.0722 266.077 47.1112L263.664 47.7145ZM272.211 33.9386C272.747 33.9386 273.133 33.7878 273.367 33.4861C273.635 33.151 273.669 32.665 273.468 32.0281C273.166 31.0561 272.881 30.2517 272.613 29.6148C272.345 28.9445 272.077 28.4417 271.809 28.1065C271.574 27.7713 271.306 27.6037 271.004 27.6037C270.703 27.6037 270.317 27.7043 269.848 27.9054C269.379 28.073 268.876 28.3411 268.339 28.7098C267.837 29.045 267.351 29.4807 266.881 30.017L266.932 29.7657C267.367 30.7042 267.904 31.4918 268.541 32.1287C269.177 32.732 269.814 33.1845 270.451 33.4861C271.121 33.7878 271.708 33.9386 272.211 33.9386ZM326.711 36L327.013 33.5364C327.65 33.5364 328.169 33.4861 328.571 33.3856C328.974 33.285 329.309 33.0504 329.577 32.6817C329.879 32.313 330.147 31.7265 330.381 30.922C330.616 30.1176 330.901 28.9947 331.236 27.5535L333.498 28.2071C333.364 28.7098 333.214 29.3132 333.046 30.017C332.878 30.7209 332.795 31.3578 332.795 31.9276C332.795 32.4303 332.979 32.8325 333.348 33.1342C333.75 33.4024 334.454 33.5364 335.459 33.5364C336.264 33.5364 336.884 33.4359 337.32 33.2348C337.755 33.0001 338.107 32.4639 338.375 31.6259C338.644 30.7544 338.928 29.3299 339.23 27.3524L341.493 27.7546C341.426 28.2909 341.308 28.9947 341.141 29.8662C341.007 30.7377 340.939 31.4248 340.939 31.9276C340.939 32.3633 341.09 32.7488 341.392 33.0839C341.727 33.3856 342.498 33.5364 343.705 33.5364C344.71 33.5364 345.431 33.3353 345.867 32.9331C346.336 32.4974 346.571 31.8438 346.571 30.9723C346.571 30.503 346.554 30.017 346.52 29.5143C346.52 29.0115 346.487 28.4417 346.42 27.8048C346.386 27.168 346.319 26.4306 346.219 25.5927L348.431 25.4418C348.531 27.0507 348.649 28.3914 348.783 29.464C348.95 30.503 349.185 31.3242 349.487 31.9276C349.788 32.4974 350.19 32.9163 350.693 33.1845C351.196 33.4191 351.85 33.5364 352.654 33.5364C353.09 33.5364 353.391 33.6537 353.559 33.8884C353.76 34.123 353.861 34.3911 353.861 34.6928C353.861 35.028 353.71 35.3296 353.408 35.5978C353.14 35.8659 352.788 36 352.352 36C351.447 36 350.66 35.8492 349.989 35.5475C349.353 35.2123 348.833 34.7766 348.431 34.2403C348.062 33.6705 347.811 33.0672 347.677 32.4303L348.179 32.5812C347.844 33.9554 347.241 34.8771 346.369 35.3464C345.498 35.7821 344.526 36 343.453 36C342.548 36 341.811 35.8994 341.241 35.6983C340.671 35.4637 340.236 35.1285 339.934 34.6928C339.632 34.2235 339.431 33.637 339.331 32.9331H340.336C339.967 33.8046 339.565 34.4582 339.13 34.8939C338.727 35.3296 338.208 35.6313 337.571 35.7989C336.934 35.933 336.113 36 335.107 36C334.605 36 334.068 35.9162 333.498 35.7486C332.929 35.581 332.426 35.2626 331.99 34.7934C331.554 34.3241 331.303 33.6202 331.236 32.6817L332.141 32.4806C331.806 33.5197 331.387 34.2906 330.884 34.7934C330.415 35.2961 329.828 35.6313 329.124 35.7989C328.454 35.933 327.65 36 326.711 36ZM318.466 36L318.767 33.5364H326.912C327.348 33.5364 327.65 33.6537 327.817 33.8884C328.018 34.123 328.119 34.3911 328.119 34.6928C328.119 35.028 327.968 35.3296 327.666 35.5978C327.398 35.8659 327.046 36 326.611 36H318.466ZM310.622 36L310.924 33.5364H319.069C319.505 33.5364 319.806 33.6537 319.974 33.8884C320.175 34.123 320.276 34.3911 320.276 34.6928C320.276 35.028 320.125 35.3296 319.823 35.5978C319.555 35.8659 319.203 36 318.767 36H310.622ZM302.729 36L303.031 33.5364H311.175C311.611 33.5364 311.913 33.6537 312.08 33.8884C312.282 34.123 312.382 34.3911 312.382 34.6928C312.382 35.028 312.231 35.3296 311.93 35.5978C311.662 35.8659 311.31 36 310.874 36H302.729ZM294.735 36L295.037 33.5364H303.181C303.584 33.5364 303.885 33.6537 304.086 33.8884C304.288 34.123 304.388 34.3911 304.388 34.6928C304.388 35.028 304.237 35.3296 303.936 35.5978C303.667 35.8659 303.316 36 302.88 36H294.735ZM286.64 36L286.942 33.5364H295.087C295.489 33.5364 295.791 33.6537 295.992 33.8884C296.193 34.123 296.293 34.3911 296.293 34.6928C296.293 35.028 296.143 35.3296 295.841 35.5978C295.573 35.8659 295.221 36 294.785 36H286.64ZM278.495 36L278.797 33.5364H286.942C287.344 33.5364 287.646 33.6537 287.847 33.8884C288.048 34.123 288.149 34.3911 288.149 34.6928C288.149 35.028 287.998 35.3296 287.696 35.5978C287.428 35.8659 287.076 36 286.64 36H278.495ZM228.269 36.3017C226.928 36.3017 225.788 36.0838 224.85 35.6481C223.945 35.1788 223.291 34.3576 222.889 33.1845C221.481 33.5197 220.124 33.5867 218.817 33.3856C217.543 33.1845 216.504 32.7488 215.699 32.0784C214.895 31.408 214.493 30.5198 214.493 29.4137C214.493 28.3411 214.828 27.3524 215.498 26.4474C216.202 25.5424 217.124 24.7882 218.264 24.1849C219.437 23.5481 220.727 23.1123 222.135 22.8777L222.085 20.565H224.498L225.001 30.5198C225.034 31.4918 225.185 32.2125 225.453 32.6817C225.755 33.151 226.157 33.4694 226.66 33.637C227.196 33.7711 227.833 33.8381 228.57 33.8381C229.71 33.8381 230.498 33.7375 230.933 33.5364C231.403 33.3018 231.671 32.8996 231.738 32.3298C231.805 31.76 231.822 30.9723 231.788 29.9668L231.386 19.0064H233.9L234.252 29.9165C234.285 30.9555 234.453 31.76 234.754 32.3298C235.056 32.8996 235.442 33.3018 235.911 33.5364C236.414 33.7375 236.983 33.8381 237.62 33.8381C238.726 33.8381 239.514 33.7375 239.983 33.5364C240.452 33.3018 240.721 32.8996 240.788 32.3298C240.855 31.76 240.871 30.9723 240.838 29.9668L240.235 14.6323H242.698L243.302 29.7154C243.369 31.1231 243.268 32.3298 243 33.3353C242.765 34.3073 242.212 35.0447 241.341 35.5475C240.469 36.0503 239.129 36.3017 237.319 36.3017C236.28 36.3017 235.458 36.1006 234.855 35.6983C234.252 35.2961 233.816 34.8269 233.548 34.2906C233.179 34.9609 232.559 35.4637 231.688 35.7989C230.85 36.1341 229.71 36.3017 228.269 36.3017ZM222.537 30.922L222.286 25.3916C221.113 25.5256 220.124 25.7938 219.319 26.196C218.515 26.5647 217.895 27.0172 217.459 27.5535C217.057 28.0562 216.856 28.5422 216.856 29.0115C216.856 29.6483 217.174 30.1343 217.811 30.4695C218.448 30.7712 219.202 30.9555 220.074 31.0226C220.979 31.0896 221.8 31.0561 222.537 30.922ZM247.927 36.1508L247.324 14.6323H249.737L250.34 36.1508H247.927ZM146.367 36.1508L146.669 33.6873C147.239 33.6873 147.691 33.5699 148.027 33.3353C148.362 33.0672 148.68 32.665 148.982 32.1287C149.284 31.5589 149.686 30.8047 150.189 29.8662C150.825 28.5925 151.462 27.6037 152.099 26.8999C152.769 26.196 153.406 25.7267 154.01 25.4921C154.613 25.224 155.149 25.0899 155.618 25.0899C156.289 25.0899 156.875 25.2407 157.378 25.5424C157.914 25.8105 158.4 26.2965 158.836 27.0004C159.305 27.7043 159.791 28.6596 160.294 29.8662C160.73 30.9723 161.132 31.7935 161.501 32.3298C161.903 32.8661 162.305 33.2348 162.707 33.4359C163.11 33.6035 163.579 33.6873 164.115 33.6873C164.551 33.6873 164.853 33.8046 165.02 34.0392C165.221 34.2738 165.322 34.542 165.322 34.8436C165.322 35.1788 165.171 35.4805 164.869 35.7486C164.601 36.0168 164.249 36.1508 163.814 36.1508C163.043 36.1508 162.322 36.0168 161.652 35.7486C160.981 35.4805 160.428 35.0783 159.993 34.542L160.445 33.8884C160.076 34.8269 159.574 35.514 158.937 35.9497C158.3 36.3519 157.596 36.553 156.825 36.553C155.82 36.553 154.78 36.2514 153.708 35.6481C152.669 35.0112 151.797 34.1565 151.093 33.0839C150.557 34.0224 150.054 34.7096 149.585 35.1453C149.116 35.581 148.63 35.8659 148.127 36C147.624 36.1006 147.038 36.1508 146.367 36.1508ZM152.25 30.8215C152.686 31.5924 153.172 32.2292 153.708 32.732C154.244 33.2012 154.78 33.5532 155.317 33.7878C155.853 34.0224 156.339 34.1398 156.775 34.1398C157.479 34.1398 157.998 33.8884 158.333 33.3856C158.669 32.8828 158.652 32.1789 158.283 31.274C158.048 30.6706 157.797 30.0841 157.529 29.5143C157.261 28.9109 156.959 28.4249 156.624 28.0562C156.289 27.6875 155.887 27.5032 155.417 27.5032C154.982 27.5032 154.496 27.7378 153.959 28.2071C153.457 28.6763 152.887 29.5478 152.25 30.8215ZM125.05 36.0503C125.05 35.3129 125.151 34.5084 125.352 33.637C125.553 32.732 125.871 31.7432 126.307 30.6706L128.469 31.5253C128.167 32.3633 127.933 33.1342 127.765 33.8381C127.597 34.542 127.514 35.1956 127.514 35.7989C127.514 37.4748 128.117 38.6814 129.324 39.4188C130.53 40.1562 131.988 40.5249 133.698 40.5249C135.508 40.5249 136.932 40.2735 137.971 39.7708C139.01 39.268 139.748 38.5976 140.183 37.7597C140.619 36.9553 140.837 36.1006 140.837 35.1956C140.837 34.3241 140.77 33.5029 140.636 32.732C140.502 31.9276 140.317 31.1566 140.083 30.4193C139.882 29.6483 139.664 28.8774 139.429 28.1065L141.893 27.4529C142.194 28.5925 142.412 29.4305 142.546 29.9668C142.68 30.4695 142.798 30.8717 142.898 31.1734C143.099 31.9108 143.384 32.4639 143.753 32.8325C144.122 33.1677 144.541 33.4024 145.01 33.5364C145.479 33.637 145.965 33.6873 146.468 33.6873C146.904 33.6873 147.205 33.8046 147.373 34.0392C147.574 34.2738 147.675 34.542 147.675 34.8436C147.675 35.1788 147.524 35.4805 147.222 35.7486C146.954 36.0168 146.602 36.1508 146.166 36.1508C144.893 36.1508 143.937 35.8492 143.301 35.2458C142.664 34.609 142.278 33.9386 142.144 33.2348L143.351 34.7431C143.284 35.7821 143.083 36.7877 142.748 37.7597C142.412 38.7317 141.876 39.6032 141.139 40.3741C140.435 41.1785 139.463 41.8154 138.223 42.2846C137.016 42.7539 135.474 42.9885 133.597 42.9885C132.089 42.9885 130.681 42.7371 129.374 42.2343C128.067 41.7316 127.011 40.9607 126.206 39.9216C125.435 38.9161 125.05 37.6256 125.05 36.0503ZM134.15 23.9838C133.748 23.9838 133.396 23.8497 133.094 23.5816C132.793 23.2799 132.642 22.928 132.642 22.5258C132.642 22.1235 132.793 21.7716 133.094 21.4699C133.396 21.1683 133.748 21.0175 134.15 21.0175C134.552 21.0175 134.904 21.1683 135.206 21.4699C135.508 21.7716 135.658 22.1235 135.658 22.5258C135.658 22.928 135.508 23.2799 135.206 23.5816C134.904 23.8497 134.552 23.9838 134.15 23.9838ZM163.411 36.1508L163.713 33.6873C165.087 33.6873 166.428 33.5532 167.735 33.285C169.076 32.9834 170.366 32.5812 171.607 32.0784C172.847 31.5421 174.003 30.9053 175.076 30.1679C174.271 29.464 173.299 28.9109 172.16 28.5087C171.02 28.073 169.78 27.8551 168.439 27.8551C167.936 27.8551 167.484 27.8886 167.082 27.9557C166.713 27.9892 166.26 28.073 165.724 28.2071L165.221 25.8943C165.758 25.7267 166.294 25.6094 166.83 25.5424C167.366 25.4418 167.903 25.3916 168.439 25.3916C169.746 25.3916 170.886 25.5759 171.858 25.9446C172.863 26.3133 173.768 26.749 174.573 27.2518C175.377 27.7211 176.131 28.14 176.835 28.5087C177.573 28.8774 178.344 29.0618 179.148 29.0618H179.751L180.003 31.2237C178.964 31.2237 178.008 31.3913 177.137 31.7265C176.299 32.0616 175.461 32.4806 174.623 32.9834C173.785 33.4526 172.847 33.9386 171.808 34.4414C170.802 34.9107 169.612 35.3129 168.238 35.6481C166.897 35.9832 165.288 36.1508 163.411 36.1508ZM201.119 36L200.516 14.4814H202.979L203.583 36H201.119ZM190.712 36.1508L190.963 33.6873C192.103 33.6873 192.907 33.5867 193.376 33.3856C193.846 33.151 194.114 32.7488 194.181 32.1789C194.248 31.6091 194.265 30.8215 194.231 29.8159L193.628 14.4814H196.091L196.695 29.5645C196.728 30.6371 196.678 31.5924 196.544 32.4303C196.443 33.2348 196.192 33.9219 195.79 34.4917C195.388 35.028 194.767 35.447 193.93 35.7486C193.125 36.0168 192.053 36.1508 190.712 36.1508ZM178.897 42.9885L178.042 40.726C179.986 40.0557 181.494 39.268 182.567 38.363C183.673 37.4916 184.444 36.5698 184.88 35.5978C185.349 34.6258 185.584 33.6873 185.584 32.7823C185.584 31.8102 185.366 30.8215 184.93 29.8159C184.528 28.7769 184.058 27.8048 183.522 26.8999L185.734 25.7938C186.271 26.8663 186.74 27.8886 187.142 28.8607C187.544 29.8327 187.846 30.6874 188.047 31.4248C188.349 32.3298 188.717 32.9331 189.153 33.2348C189.622 33.5364 190.243 33.6873 191.013 33.6873C191.449 33.6873 191.751 33.8046 191.918 34.0392C192.12 34.2738 192.22 34.542 192.22 34.8436C192.22 35.1788 192.069 35.4805 191.768 35.7486C191.499 36.0168 191.148 36.1508 190.712 36.1508C189.405 36.1508 188.449 35.8157 187.846 35.1453C187.276 34.4749 186.907 33.704 186.74 32.8325L187.695 33.3856C187.695 34.7263 187.393 35.933 186.79 37.0055C186.22 38.1116 185.466 39.0669 184.528 39.8713C183.623 40.6758 182.667 41.3461 181.662 41.8824C180.656 42.4187 179.735 42.7874 178.897 42.9885ZM72.7619 36.1508L73.0133 33.6873C74.4211 33.6873 75.7785 33.5532 77.0857 33.285C78.4265 32.9834 79.7001 32.5812 80.9068 32.0784C82.147 31.5421 83.3033 30.9053 84.3759 30.1679C83.605 29.464 82.6497 28.9109 81.5101 28.5087C80.3705 28.073 79.1136 27.8551 77.7393 27.8551C77.2701 27.8551 76.8344 27.8886 76.4321 27.9557C76.0634 27.9892 75.5942 28.073 75.0244 28.2071L74.5719 25.8943C75.1082 25.7267 75.6445 25.6094 76.1808 25.5424C76.717 25.4418 77.2366 25.3916 77.7393 25.3916C79.0801 25.3916 80.2364 25.5759 81.2085 25.9446C82.214 26.3133 83.119 26.749 83.9234 27.2518C84.7278 27.7211 85.482 28.14 86.1859 28.5087C86.9233 28.8774 87.6774 29.0618 88.4483 29.0618H89.1019L89.3031 31.2237C88.264 31.2237 87.3255 31.3913 86.4875 31.7265C85.6496 32.0616 84.7949 32.4806 83.9234 32.9834C83.0855 33.4526 82.1637 33.9386 81.1582 34.4414C80.1526 34.9107 78.9627 35.3129 77.5885 35.6481C76.2478 35.9832 74.6389 36.1508 72.7619 36.1508ZM112.38 36L111.777 14.4814H114.19L114.793 36H112.38ZM101.872 36.1508L102.174 33.6873C103.314 33.6873 104.101 33.5867 104.537 33.3856C105.006 33.151 105.274 32.7488 105.341 32.1789C105.442 31.6091 105.475 30.8215 105.442 29.8159L104.839 14.4814H107.302L107.906 29.5645C107.939 30.6371 107.889 31.5924 107.755 32.4303C107.654 33.2348 107.403 33.9219 107.001 34.4917C106.598 35.028 105.978 35.447 105.14 35.7486C104.336 36.0168 103.247 36.1508 101.872 36.1508ZM90.1075 42.9885L89.2025 40.726C91.1801 40.0557 92.7051 39.268 93.7777 38.363C94.8838 37.4916 95.6547 36.5698 96.0904 35.5978C96.5597 34.6258 96.7943 33.6873 96.7943 32.7823C96.7943 31.8102 96.5765 30.8215 96.1407 29.8159C95.705 28.7769 95.2357 27.8048 94.733 26.8999L96.8949 25.7938C97.4647 26.8663 97.9339 27.8886 98.3026 28.8607C98.7049 29.8327 99.0233 30.6874 99.2579 31.4248C99.526 32.3298 99.8947 32.9331 100.364 33.2348C100.833 33.5364 101.453 33.6873 102.224 33.6873C102.66 33.6873 102.962 33.8046 103.129 34.0392C103.33 34.2738 103.431 34.542 103.431 34.8436C103.431 35.1788 103.28 35.4805 102.978 35.7486C102.71 36.0168 102.358 36.1508 101.923 36.1508C100.582 36.1508 99.6098 35.8157 99.0065 35.1453C98.4367 34.4749 98.0848 33.704 97.9507 32.8325L98.906 33.3856C98.906 34.7263 98.6043 35.933 98.001 37.0055C97.4312 38.1116 96.677 39.0669 95.7385 39.8713C94.8335 40.6758 93.8783 41.3461 92.8727 41.8824C91.8672 42.4187 90.9454 42.7874 90.1075 42.9885ZM2.27355 47.8654C1.83781 46.3235 1.46911 44.7985 1.16745 43.2902C0.86579 41.8154 0.631164 40.4914 0.463574 39.3183C0.329501 38.1787 0.262465 37.324 0.262465 36.7542C0.262465 35.2794 0.497092 33.9386 0.966344 32.732C1.46911 31.4918 2.0892 30.4025 2.82659 29.464C3.59751 28.492 4.4187 27.6875 5.29017 27.0507C6.19515 26.4139 7.06662 25.9278 7.90457 25.5927C8.74252 25.2575 9.4464 25.0899 10.0162 25.0899C10.519 25.0899 10.9547 25.2072 11.3234 25.4418C11.7256 25.6429 12.0943 26.0619 12.4295 26.6988C12.7982 27.3356 13.2004 28.2909 13.6362 29.5645C14.0048 30.7042 14.3568 31.5756 14.692 32.1789C15.0607 32.7488 15.4294 33.151 15.7981 33.3856C16.2003 33.5867 16.6695 33.6873 17.2058 33.6873C17.6416 33.6873 17.9432 33.8046 18.1108 34.0392C18.3119 34.2738 18.4125 34.542 18.4125 34.8436C18.4125 35.1788 18.2616 35.4805 17.96 35.7486C17.6918 36.0168 17.3399 36.1508 16.9042 36.1508C16.1332 36.1508 15.4629 36.0168 14.8931 35.7486C14.3568 35.447 13.8875 35.0615 13.4853 34.5922L14.1892 33.9889C13.8205 34.8604 13.3177 35.514 12.6809 35.9497C12.044 36.3519 11.3402 36.553 10.5693 36.553C9.79834 36.553 8.99391 36.3687 8.15596 36C7.31801 35.6313 6.51357 35.0783 5.74266 34.3409C5.00526 33.6035 4.36842 32.732 3.83213 31.7265L4.1338 31.7767C3.56399 32.5476 3.17853 33.4024 2.97742 34.3409C2.80983 35.2458 2.72604 36.0503 2.72604 36.7542C2.72604 37.5251 2.82659 38.5306 3.0277 39.7708C3.22881 41.0445 3.48019 42.3517 3.78186 43.6924C4.08352 45.0331 4.38518 46.223 4.68684 47.2621L2.27355 47.8654ZM10.8206 34.0895C11.3569 34.0895 11.7424 33.9386 11.977 33.637C12.2452 33.3018 12.2787 32.8158 12.0776 32.1789C11.7759 31.2069 11.491 30.4025 11.2229 29.7657C10.9547 29.0953 10.6866 28.5925 10.4184 28.2573C10.1838 27.9222 9.91565 27.7546 9.61399 27.7546C9.31233 27.7546 8.92687 27.8551 8.45762 28.0562C7.98837 28.2238 7.4856 28.492 6.94931 28.8607C6.44654 29.1958 5.96053 29.6316 5.49127 30.1679L5.54155 29.9165C5.97729 30.855 6.51357 31.6427 7.15042 32.2795C7.78726 32.8828 8.4241 33.3353 9.06094 33.637C9.7313 33.9386 10.3179 34.0895 10.8206 34.0895ZM16.5019 36.1508L16.8036 33.6873C18.1443 33.6873 19.0996 33.5364 19.6694 33.2348C20.2727 32.9331 20.6917 32.3465 20.9263 31.4751C21.1945 30.5701 21.4961 29.2294 21.8313 27.4529L24.1943 27.9054C24.0603 28.4417 23.9094 29.0618 23.7418 29.7657C23.6078 30.4695 23.5407 31.0729 23.5407 31.5756C23.5407 31.9778 23.591 32.3465 23.6916 32.6817C23.7921 32.9834 24.1608 33.2348 24.7976 33.4359C25.4345 33.6035 26.5238 33.6873 28.0657 33.6873C28.5014 33.6873 28.803 33.8046 28.9706 34.0392C29.1717 34.2738 29.2723 34.542 29.2723 34.8436C29.2723 35.1788 29.1215 35.4805 28.8198 35.7486C28.5517 36.0168 28.1997 36.1508 27.764 36.1508C26.1216 36.1508 24.915 36.0335 24.144 35.7989C23.3731 35.5643 22.8536 35.2123 22.5855 34.7431C22.3508 34.2738 22.1832 33.704 22.0827 33.0337L22.9877 33.0839C22.5519 33.9554 22.0659 34.609 21.5296 35.0447C20.9934 35.4805 20.323 35.7821 19.5186 35.9497C18.7476 36.0838 17.7421 36.1508 16.5019 36.1508ZM24.144 41.8321C23.7083 41.8321 23.3396 41.6813 23.038 41.3796C22.7698 41.1115 22.6357 40.7763 22.6357 40.3741C22.6357 39.9719 22.7698 39.6199 23.038 39.3183C23.3396 39.0166 23.7083 38.8658 24.144 38.8658C24.5463 38.8658 24.8814 39.0166 25.1496 39.3183C25.4512 39.6199 25.6021 39.9719 25.6021 40.3741C25.6021 40.7763 25.4512 41.1115 25.1496 41.3796C24.8814 41.6813 24.5463 41.8321 24.144 41.8321ZM19.9711 41.8321C19.5688 41.8321 19.2169 41.6813 18.9152 41.3796C18.6136 41.1115 18.4627 40.7763 18.4627 40.3741C18.4627 39.9719 18.6136 39.6199 18.9152 39.3183C19.2169 39.0166 19.5688 38.8658 19.9711 38.8658C20.4068 38.8658 20.7587 39.0166 21.0269 39.3183C21.3285 39.6199 21.4794 39.9719 21.4794 40.3741C21.4794 40.7763 21.3285 41.1115 21.0269 41.3796C20.7587 41.6813 20.4068 41.8321 19.9711 41.8321ZM65.2706 36.1508L65.5723 33.6873H73.7172C74.1529 33.6873 74.4546 33.8046 74.6222 34.0392C74.8233 34.2738 74.9238 34.542 74.9238 34.8436C74.9238 35.1788 74.773 35.4805 74.4713 35.7486C74.2032 36.0168 73.8513 36.1508 73.4155 36.1508H65.2706ZM57.7291 36.1508L58.0307 33.6873H66.1756C66.6114 33.6873 66.913 33.8046 67.0806 34.0392C67.2817 34.2738 67.3823 34.542 67.3823 34.8436C67.3823 35.1788 67.2314 35.4805 66.9298 35.7486C66.6616 36.0168 66.3097 36.1508 65.874 36.1508H57.7291ZM50.1875 36.1508L50.4892 33.6873H58.6341C59.0698 33.6873 59.3715 33.8046 59.5391 34.0392C59.7402 34.2738 59.8407 34.542 59.8407 34.8436C59.8407 35.1788 59.6899 35.4805 59.3882 35.7486C59.1201 36.0168 58.7681 36.1508 58.3324 36.1508H50.1875ZM42.3443 36.1508L42.646 33.6873H50.7909C51.2266 33.6873 51.5283 33.8046 51.6958 34.0392C51.897 34.2738 51.9975 34.542 51.9975 34.8436C51.9975 35.1788 51.8467 35.4805 51.545 35.7486C51.2769 36.0168 50.9249 36.1508 50.4892 36.1508H42.3443ZM34.5514 36.1508L34.853 33.6873H42.9979C43.4337 33.6873 43.7353 33.8046 43.9029 34.0392C44.104 34.2738 44.2046 34.542 44.2046 34.8436C44.2046 35.1788 44.0537 35.4805 43.7521 35.7486C43.4839 36.0168 43.132 36.1508 42.6963 36.1508H34.5514ZM26.7082 36.1508L27.0098 33.6873H35.1547C35.5904 33.6873 35.8921 33.8046 36.0597 34.0392C36.2608 34.2738 36.3614 34.542 36.3614 34.8436C36.3614 35.1788 36.2105 35.4805 35.9089 35.7486C35.6407 36.0168 35.2888 36.1508 34.853 36.1508H26.7082ZM352 45.8543V44.1449L358.738 42.1338V43.8935L352 45.8543ZM216.353 40.9271V39.2177L223.09 37.2066V38.9663L216.353 40.9271ZM131.234 48.167V46.4576L137.971 44.4465V46.2062L131.234 48.167ZM267.334 42.9382V41.2288L274.071 39.2177V40.9774L267.334 42.9382ZM5.84321 42.9382V41.2288L12.5803 39.2177V40.9774L5.84321 42.9382ZM20.6247 21.7213L20.2727 20.2633C21.2447 20.2633 22.0827 20.1125 22.7866 19.8108C23.4904 19.5091 24.0602 19.174 24.496 18.8053C24.9652 18.403 25.2669 18.0679 25.401 17.7997L25.2501 18.8053C25.049 18.6377 24.7641 18.4868 24.3954 18.3528C24.0603 18.2187 23.7251 18.1181 23.3899 18.0511C23.0547 17.9506 22.7866 17.9003 22.5855 17.9003C22.3508 17.9003 22.133 17.9673 21.9319 18.1014C21.7307 18.2019 21.4961 18.403 21.228 18.7047L20.2727 17.7997C20.4738 17.4645 20.7755 17.1294 21.1777 16.7942C21.5799 16.459 22.0324 16.2914 22.5352 16.2914C22.8368 16.2914 23.2558 16.3752 23.7921 16.5428C24.3284 16.6769 24.8814 16.878 25.4512 17.1461C26.0211 17.3807 26.5071 17.6824 26.9093 18.0511C26.7417 18.5874 26.373 19.1404 25.8032 19.7102C25.2669 20.2801 24.563 20.7661 23.6916 21.1683C22.8201 21.537 21.7978 21.7213 20.6247 21.7213ZM169.143 21.7213L168.791 20.2633C169.763 20.2633 170.601 20.1125 171.305 19.8108C172.009 19.5091 172.579 19.174 173.014 18.8053C173.484 18.403 173.785 18.0679 173.919 17.7997L173.768 18.8053C173.567 18.6377 173.282 18.4868 172.914 18.3528C172.579 18.2187 172.243 18.1181 171.908 18.0511C171.573 17.9506 171.305 17.9003 171.104 17.9003C170.869 17.9003 170.651 17.9673 170.45 18.1014C170.249 18.2019 170.014 18.403 169.746 18.7047L168.791 17.7997C168.992 17.4645 169.294 17.1294 169.696 16.7942C170.098 16.459 170.551 16.2914 171.053 16.2914C171.355 16.2914 171.774 16.3752 172.31 16.5428C172.847 16.6769 173.4 16.878 173.97 17.1461C174.539 17.3807 175.025 17.6824 175.428 18.0511C175.26 18.5874 174.891 19.1404 174.321 19.7102C173.785 20.2801 173.081 20.7661 172.21 21.1683C171.338 21.537 170.316 21.7213 169.143 21.7213ZM336.767 21.7213L336.415 20.2633C337.387 20.2633 338.225 20.1125 338.928 19.8108C339.632 19.5091 340.202 19.174 340.638 18.8053C341.107 18.403 341.409 18.0679 341.543 17.7997L341.392 18.8053C341.191 18.6377 340.906 18.4868 340.537 18.3528C340.202 18.2187 339.867 18.1181 339.532 18.0511C339.197 17.9506 338.928 17.9003 338.727 17.9003C338.493 17.9003 338.275 17.9673 338.074 18.1014C337.873 18.2019 337.638 18.403 337.37 18.7047L336.415 17.7997C336.616 17.4645 336.917 17.1294 337.32 16.7942C337.722 16.459 338.174 16.2914 338.677 16.2914C338.979 16.2914 339.398 16.3752 339.934 16.5428C340.47 16.6769 341.023 16.878 341.593 17.1461C342.163 17.3807 342.649 17.6824 343.051 18.0511C342.884 18.5874 342.515 19.1404 341.945 19.7102C341.409 20.2801 340.705 20.7661 339.833 21.1683C338.962 21.537 337.94 21.7213 336.767 21.7213ZM146.77 22.6263L146.569 17.4478H148.228L148.429 22.6263H146.77ZM230.33 10.7107C229.526 10.7107 228.989 10.4593 228.721 9.95651C228.487 9.42022 228.369 8.85041 228.369 8.24709C228.369 8.01246 228.369 7.77784 228.369 7.54321C228.403 7.27507 228.453 6.97341 228.52 6.63822L230.028 6.23601C229.961 6.57119 229.911 6.88961 229.878 7.19127C229.878 7.49294 229.878 7.74432 229.878 7.94543C229.878 8.31413 229.928 8.59903 230.028 8.80014C230.162 8.96773 230.364 9.05152 230.632 9.05152C230.933 9.05152 231.168 8.90069 231.336 8.59903C231.537 8.29737 231.654 7.67728 231.688 6.73878V5.83379L233.146 5.28075V7.09072C233.146 7.39238 233.196 7.64377 233.296 7.84488C233.43 8.04598 233.665 8.14654 234 8.14654C234.369 8.14654 234.604 8.04598 234.704 7.84488C234.838 7.61025 234.905 7.32534 234.905 6.99017C234.905 6.65499 234.855 6.31981 234.754 5.98463C234.687 5.61593 234.587 5.26399 234.453 4.92881L235.81 4.47631C236.011 4.87853 236.179 5.33102 236.313 5.83379C236.447 6.30305 236.514 6.73878 236.514 7.141C236.514 7.81136 236.33 8.41468 235.961 8.95097C235.592 9.48726 235.023 9.7554 234.252 9.7554C233.615 9.7554 233.095 9.58781 232.693 9.25263C232.324 8.91745 232.14 8.51523 232.14 8.04598L232.794 8.29737C232.794 9.00125 232.559 9.58781 232.09 10.0571C231.621 10.4928 231.034 10.7107 230.33 10.7107ZM228.721 4.37576V2.66634L235.458 0.705539V2.41496L228.721 4.37576ZM182.366 14.6323C181.561 14.6323 181.025 14.3809 180.757 13.8781C180.522 13.3418 180.405 12.772 180.405 12.1687C180.405 11.9341 180.405 11.6994 180.405 11.4648C180.439 11.1967 180.489 10.895 180.556 10.5598L182.064 10.1576C181.997 10.4928 181.947 10.8112 181.913 11.1129C181.913 11.4145 181.913 11.6659 181.913 11.867C181.913 12.2357 181.964 12.5206 182.064 12.7217C182.198 12.8893 182.399 12.9731 182.667 12.9731C182.969 12.9731 183.204 12.8223 183.371 12.5206C183.572 12.219 183.69 11.5989 183.723 10.6604V9.7554L185.181 9.20235V11.0123C185.181 11.314 185.232 11.5654 185.332 11.7665C185.466 11.9676 185.701 12.0681 186.036 12.0681C186.405 12.0681 186.639 11.9676 186.74 11.7665C186.874 11.5319 186.941 11.247 186.941 10.9118C186.941 10.5766 186.891 10.2414 186.79 9.90623C186.723 9.53753 186.623 9.18559 186.489 8.85041L187.846 8.39792C188.047 8.80014 188.215 9.25263 188.349 9.7554C188.483 10.2247 188.55 10.6604 188.55 11.0626C188.55 11.733 188.366 12.3363 187.997 12.8726C187.628 13.4089 187.058 13.677 186.287 13.677C185.651 13.677 185.131 13.5094 184.729 13.1742C184.36 12.8391 184.176 12.4368 184.176 11.9676L184.829 12.219C184.829 12.9229 184.595 13.5094 184.125 13.9787C183.656 14.4144 183.07 14.6323 182.366 14.6323ZM180.757 8.29737V6.58795L187.494 4.62715V6.33656L180.757 8.29737ZM93.8783 14.6323C93.0738 14.6323 92.5375 14.3809 92.2694 13.8781C92.0348 13.3418 91.9175 12.772 91.9175 12.1687C91.9175 11.9341 91.9175 11.6994 91.9175 11.4648C91.951 11.1967 92.0012 10.895 92.0683 10.5598L93.5766 10.1576C93.5096 10.4928 93.4593 10.8112 93.4258 11.1129C93.4258 11.4145 93.4258 11.6659 93.4258 11.867C93.4258 12.2357 93.476 12.5206 93.5766 12.7217C93.7107 12.8893 93.9118 12.9731 94.1799 12.9731C94.4816 12.9731 94.7162 12.8223 94.8838 12.5206C95.0849 12.219 95.2022 11.5989 95.2357 10.6604V9.7554L96.6938 9.20235V11.0123C96.6938 11.314 96.744 11.5654 96.8446 11.7665C96.9787 11.9676 97.2133 12.0681 97.5485 12.0681C97.9172 12.0681 98.1518 11.9676 98.2524 11.7665C98.3864 11.5319 98.4535 11.247 98.4535 10.9118C98.4535 10.5766 98.4032 10.2414 98.3026 9.90623C98.2356 9.53753 98.135 9.18559 98.001 8.85041L99.3584 8.39792C99.5596 8.80014 99.7271 9.25263 99.8612 9.7554C99.9953 10.2247 100.062 10.6604 100.062 11.0626C100.062 11.733 99.878 12.3363 99.5093 12.8726C99.1406 13.4089 98.5708 13.677 97.7999 13.677C97.163 13.677 96.6435 13.5094 96.2413 13.1742C95.8726 12.8391 95.6882 12.4368 95.6882 11.9676L96.3418 12.219C96.3418 12.9229 96.1072 13.5094 95.638 13.9787C95.1687 14.4144 94.5821 14.6323 93.8783 14.6323ZM92.2694 8.29737V6.58795L99.0065 4.62715V6.33656L92.2694 8.29737ZM76.2813 42.9382V41.2288L83.0184 39.2177V40.9774L76.2813 42.9382Z" fill="black"/>
</svg>
