<svg width="1440" height="288" viewBox="0 0 1440 288" fill="none" xmlns="http://www.w3.org/2000/svg">
<path fill-rule="evenodd" clip-rule="evenodd" d="M0 0L60 48C120 96 240 192 360 192C480 192 600 96 720 90C840 84 960 168 1080 186C1200 204 1320 156 1380 132L1440 108V288H1380C1320 288 1200 288 1080 288C960 288 840 288 720 288C600 288 480 288 360 288C240 288 120 288 60 288H0V0Z" fill="url(#paint0_linear_132_668)" fill-opacity="0.9"/>
<path fill-rule="evenodd" clip-rule="evenodd" d="M0 129.351H60C120 129.351 240 129.351 360 149.182C480 169.013 600 208.675 720 182.234C840 155.792 960 63.2466 1080 36.805C1200 10.3635 1320 50.0258 1380 69.857L1440 89.6882V288H1380C1320 288 1200 288 1080 288C960 288 840 288 720 288C600 288 480 288 360 288C240 288 120 288 60 288H0V129.351Z" fill="#FFE200" fill-opacity="0.55"/>
<defs>
<linearGradient id="paint0_linear_132_668" x1="0" y1="0" x2="1292.73" y2="603.474" gradientUnits="userSpaceOnUse">
<stop stop-color="#02762F"/>
<stop offset="0.779523" stop-color="#22C55E"/>
</linearGradient>
</defs>
</svg>
